<svg xmlns="http://www.w3.org/2000/svg" width="768" height="640" viewBox="0 0 768 640">
  <defs>
    <filter id="petShadow" x="-30%" y="-30%" width="160%" height="160%">
      <feDropShadow dx="0" dy="6" stdDeviation="3" flood-color="#3a2a2a" flood-opacity=".16"/>
    </filter>
    <style>
      .fur{fill:var(--body)}
      .accent{fill:var(--accent)}
      .shade{fill:var(--shade);opacity:.52}
      .ink{fill:#3a2a2a}
      .cream{fill:#fffdf6}
      .line{stroke:#5b3f3f;stroke-width:3;stroke-linecap:round;stroke-linejoin:round;opacity:.34}
      .glow{fill:#faebc2;opacity:.28}
    </style>
    <g id="petFox" filter="url(#petShadow)">
      <ellipse cx="64" cy="112" rx="37" ry="10" fill="#3a2a2a" opacity=".13"/>
      <path class="shade" d="M82 70c24-2 36 11 35 27-14 2-29-2-43-12z"/>
      <path class="fur" d="M34 66c8-19 26-29 44-22 20 7 28 26 20 46-8 22-32 31-52 22-18-9-22-29-12-46z"/>
      <path class="fur" d="M39 50 25 19l29 17zM76 39l28-20-8 35z"/>
      <path class="cream" d="M48 80c6 12 26 14 35 1-7 20-31 23-35-1z"/>
      <circle class="ink" cx="54" cy="62" r="3"/><circle class="ink" cx="76" cy="62" r="3"/>
      <path class="line" d="M60 72c5 4 10 4 15 0"/>
      <ellipse class="accent" cx="48" cy="108" rx="10" ry="7"/><ellipse class="accent" cx="82" cy="108" rx="10" ry="7"/>
    </g>
    <g id="petBunny" filter="url(#petShadow)">
      <ellipse cx="64" cy="112" rx="35" ry="10" fill="#3a2a2a" opacity=".13"/>
      <path class="fur" d="M44 43c-7-22-6-38 4-42 10-3 18 16 17 42zM70 43c0-25 8-44 19-41 10 3 10 22 2 43z"/>
      <path class="fur" d="M30 67c7-22 25-33 47-27 22 6 34 26 26 48-8 25-37 35-58 24-17-9-22-26-15-45z"/>
      <path class="cream" d="M46 82c6 13 28 15 38 1-8 22-34 24-38-1z"/>
      <circle class="ink" cx="55" cy="62" r="3"/><circle class="ink" cx="77" cy="62" r="3"/>
      <path class="line" d="M60 73c5 4 10 4 15 0"/>
      <ellipse class="accent" cx="47" cy="108" rx="10" ry="7"/><ellipse class="accent" cx="84" cy="108" rx="10" ry="7"/>
    </g>
    <g id="petBear" filter="url(#petShadow)">
      <ellipse cx="64" cy="112" rx="38" ry="10" fill="#3a2a2a" opacity=".13"/>
      <circle class="fur" cx="42" cy="45" r="16"/><circle class="fur" cx="86" cy="45" r="16"/>
      <path class="fur" d="M27 70c4-24 21-39 44-35 27 4 40 25 33 49-7 27-38 39-61 27-14-7-19-22-16-41z"/>
      <ellipse class="cream" cx="65" cy="83" rx="25" ry="20"/>
      <circle class="ink" cx="55" cy="61" r="3"/><circle class="ink" cx="76" cy="61" r="3"/>
      <path class="line" d="M58 75c6 5 12 5 18 0"/>
      <ellipse class="accent" cx="47" cy="109" rx="10" ry="7"/><ellipse class="accent" cx="84" cy="109" rx="10" ry="7"/>
    </g>
    <g id="petDuck" filter="url(#petShadow)">
      <ellipse cx="64" cy="112" rx="37" ry="10" fill="#3a2a2a" opacity=".13"/>
      <path class="fur" d="M31 76c3-24 22-40 45-34 21 5 34 24 29 46-6 25-34 34-58 24-14-6-18-19-16-36z"/>
      <path class="accent" d="M54 68c7-7 20-7 28 0-8 8-20 9-28 0z"/>
      <path class="shade" d="M42 82c-14 1-22-6-22-17 12-2 23 2 31 12z"/>
      <circle class="ink" cx="55" cy="58" r="3"/><circle class="ink" cx="77" cy="58" r="3"/>
      <path class="line" d="M58 75c7 2 15 2 22 0"/>
      <ellipse class="accent" cx="48" cy="109" rx="11" ry="7"/><ellipse class="accent" cx="84" cy="109" rx="11" ry="7"/>
    </g>
    <g id="petKitten" filter="url(#petShadow)">
      <ellipse cx="64" cy="112" rx="36" ry="10" fill="#3a2a2a" opacity=".13"/>
      <path class="fur" d="M38 48 31 15l25 22zM79 38l25-22-8 35z"/>
      <path class="fur" d="M29 70c6-22 24-34 46-29 23 5 35 25 28 48-8 25-37 34-58 23-16-8-21-24-16-42z"/>
      <path class="shade" d="M91 74c25 0 34 14 24 30-13-1-27-7-38-18z"/>
      <circle class="ink" cx="55" cy="62" r="3"/><circle class="ink" cx="77" cy="62" r="3"/>
      <path class="line" d="M58 74c6 4 12 4 18 0M42 71h-13M44 78h-14M86 71h13M84 78h14"/>
      <ellipse class="accent" cx="48" cy="108" rx="10" ry="7"/><ellipse class="accent" cx="83" cy="108" rx="10" ry="7"/>
    </g>
  </defs>
  <rect width="768" height="640" fill="none"/>
  <g style="--body:#fff3df;--shade:#d6b98b;--accent:#f4b5be">
    <g transform="translate(0 0)"><use href="#petFox"/></g><g transform="translate(128 0)"><use href="#petFox"/><path class="line" d="M174 104c-8 10-4 16 8 18"/></g><g transform="translate(256 0)"><use href="#petFox"/><path class="line" d="M336 104c8 10 4 16-8 18"/></g><g transform="translate(384 0) scale(1 .86) translate(0 18)"><use href="#petFox"/></g><g transform="translate(512 0)"><use href="#petFox"/><path class="line" d="M568 63h9M590 63h9"/><text x="603" y="35" font-family="Georgia" font-size="18" fill="#8e70bd" font-weight="700">z</text></g><g transform="translate(640 0)"><use href="#petFox"/><path fill="#d87e8c" d="M735 23c3-7 13-6 15 2 2-8 13-8 16 0 4 10-9 20-16 26-8-7-20-17-15-28z"/></g>
  </g>
  <g style="--body:#fbd9dc;--shade:#d87e8c;--accent:#faebc2" transform="translate(0 128)">
    <g><use href="#petBunny"/></g><g transform="translate(128 0)"><use href="#petBunny"/><path class="line" d="M173 104c-8 10-4 16 8 18"/></g><g transform="translate(256 0)"><use href="#petBunny"/><path class="line" d="M336 104c8 10 4 16-8 18"/></g><g transform="translate(384 0) scale(1 .86) translate(0 18)"><use href="#petBunny"/></g><g transform="translate(512 0)"><use href="#petBunny"/><path class="line" d="M568 63h9M590 63h9"/><text x="603" y="35" font-family="Georgia" font-size="18" fill="#8e70bd" font-weight="700">z</text></g><g transform="translate(640 0)"><use href="#petBunny"/><path fill="#d87e8c" d="M735 23c3-7 13-6 15 2 2-8 13-8 16 0 4 10-9 20-16 26-8-7-20-17-15-28z"/></g>
  </g>
  <g style="--body:#fbe6b6;--shade:#d9a53e;--accent:#8e70bd" transform="translate(0 256)">
    <g><use href="#petBear"/></g><g transform="translate(128 0)"><use href="#petBear"/><path class="line" d="M173 104c-8 10-4 16 8 18"/></g><g transform="translate(256 0)"><use href="#petBear"/><path class="line" d="M336 104c8 10 4 16-8 18"/></g><g transform="translate(384 0) scale(1 .86) translate(0 18)"><use href="#petBear"/></g><g transform="translate(512 0)"><use href="#petBear"/><path class="line" d="M568 63h9M590 63h9"/><text x="603" y="35" font-family="Georgia" font-size="18" fill="#8e70bd" font-weight="700">z</text></g><g transform="translate(640 0)"><use href="#petBear"/><path fill="#d87e8c" d="M735 23c3-7 13-6 15 2 2-8 13-8 16 0 4 10-9 20-16 26-8-7-20-17-15-28z"/></g>
  </g>
  <g style="--body:#c9e1ed;--shade:#5e94b0;--accent:#d9a53e" transform="translate(0 384)">
    <g><use href="#petDuck"/></g><g transform="translate(128 0)"><use href="#petDuck"/><path class="line" d="M173 104c-8 10-4 16 8 18"/></g><g transform="translate(256 0)"><use href="#petDuck"/><path class="line" d="M336 104c8 10 4 16-8 18"/></g><g transform="translate(384 0) scale(1 .86) translate(0 18)"><use href="#petDuck"/></g><g transform="translate(512 0)"><use href="#petDuck"/><path class="line" d="M568 63h9M590 63h9"/><text x="603" y="35" font-family="Georgia" font-size="18" fill="#8e70bd" font-weight="700">z</text></g><g transform="translate(640 0)"><use href="#petDuck"/><path fill="#d87e8c" d="M735 23c3-7 13-6 15 2 2-8 13-8 16 0 4 10-9 20-16 26-8-7-20-17-15-28z"/></g>
  </g>
  <g style="--body:#d2e8c7;--shade:#6e9651;--accent:#f4b5be" transform="translate(0 512)">
    <g><use href="#petKitten"/></g><g transform="translate(128 0)"><use href="#petKitten"/><path class="line" d="M173 104c-8 10-4 16 8 18"/></g><g transform="translate(256 0)"><use href="#petKitten"/><path class="line" d="M336 104c8 10 4 16-8 18"/></g><g transform="translate(384 0) scale(1 .86) translate(0 18)"><use href="#petKitten"/></g><g transform="translate(512 0)"><use href="#petKitten"/><path class="line" d="M568 63h9M590 63h9"/><text x="603" y="35" font-family="Georgia" font-size="18" fill="#8e70bd" font-weight="700">z</text></g><g transform="translate(640 0)"><use href="#petKitten"/><path fill="#d87e8c" d="M735 23c3-7 13-6 15 2 2-8 13-8 16 0 4 10-9 20-16 26-8-7-20-17-15-28z"/></g>
  </g>
</svg>
