<svg xmlns="http://www.w3.org/2000/svg" viewBox="0 0 64 64">
  <defs>
    <linearGradient id="bg" x1="10" x2="54" y1="4" y2="60" gradientUnits="userSpaceOnUse">
      <stop stop-color="#FFFDF6" />
      <stop offset="0.46" stop-color="#FBE3E3" />
      <stop offset="1" stop-color="#E4EFD7" />
    </linearGradient>
    <linearGradient id="heart" x1="18" x2="47" y1="18" y2="50" gradientUnits="userSpaceOnUse">
      <stop stop-color="#F4B5BE" />
      <stop offset="1" stop-color="#D87E8C" />
    </linearGradient>
    <filter id="shadow" x="-20%" y="-20%" width="140%" height="150%">
      <feDropShadow dx="0" dy="3" stdDeviation="3" flood-color="#5B3F3F" flood-opacity="0.2" />
    </filter>
  </defs>
  <rect width="64" height="64" rx="18" fill="url(#bg)" />
  <path
    d="M32 51.5C22.4 44.1 15 37.5 15 28.5C15 22.8 18.9 18.6 24.1 18.6C27.5 18.6 30 20.2 32 23.1C34 20.2 36.5 18.6 39.9 18.6C45.1 18.6 49 22.8 49 28.5C49 37.5 41.6 44.1 32 51.5Z"
    fill="url(#heart)"
    filter="url(#shadow)"
  />
  <path
    d="M20.7 30.2C24.9 24.9 31.1 22.6 38.7 24.1C34.8 28.9 29.7 31.3 23.4 31.3C22.4 31.3 21.5 30.9 20.7 30.2Z"
    fill="#E4EFD7"
    opacity="0.92"
  />
  <path d="M22 30.2C27.5 29.4 32.3 27.7 37.2 24.6" fill="none" stroke="#6E9651" stroke-width="2.4" stroke-linecap="round" />
  <path
    d="M18.2 42.2C22.7 37.2 27.7 34.7 33.1 34.7C39 34.7 43.8 37.3 47.5 42.2"
    fill="none"
    stroke="#D9A53E"
    stroke-width="3.4"
    stroke-linecap="round"
  />
  <circle cx="46.8" cy="16.8" r="3" fill="#FAEBC2" />
  <path d="M49.4 8.8L51 12.1L54.5 13.1L51 14.2L49.4 17.5L47.8 14.2L44.3 13.1L47.8 12.1L49.4 8.8Z" fill="#FFFDF6" />
  <path d="M14.4 12.5L15.7 15.2L18.6 16L15.7 16.9L14.4 19.6L13 16.9L10.2 16L13 15.2L14.4 12.5Z" fill="#C0A8DC" />
</svg>
