<svg xmlns="http://www.w3.org/2000/svg" width="3400" height="1133" viewBox="0 0 3400 1133">
  <defs>
    <linearGradient id="gardenGround" x1="0" y1="0" x2="1" y2="1">
      <stop offset="0" stop-color="#eaf4d8"/>
      <stop offset="0.42" stop-color="#dfeec7"/>
      <stop offset="1" stop-color="#cfe4b7"/>
    </linearGradient>
    <radialGradient id="warmPatch" cx="50%" cy="45%" r="55%">
      <stop offset="0" stop-color="#fff3c8" stop-opacity="0.42"/>
      <stop offset="1" stop-color="#fff3c8" stop-opacity="0"/>
    </radialGradient>
    <filter id="softNoise">
      <feTurbulence type="fractalNoise" baseFrequency="0.018" numOctaves="4" seed="17"/>
      <feColorMatrix type="matrix" values="0 0 0 0 0.47 0 0 0 0 0.58 0 0 0 0 0.34 0 0 0 .09 0"/>
    </filter>
  </defs>
  <rect width="3400" height="1133" fill="url(#gardenGround)"/>
  <rect width="3400" height="1133" filter="url(#softNoise)" opacity="0.65"/>
  <ellipse cx="670" cy="370" rx="520" ry="230" fill="url(#warmPatch)"/>
  <ellipse cx="1500" cy="760" rx="620" ry="260" fill="url(#warmPatch)"/>
  <ellipse cx="2700" cy="420" rx="640" ry="260" fill="url(#warmPatch)"/>
  <path d="M0 980 C380 880 690 1080 1050 990 C1450 888 1810 1042 2180 948 C2650 830 3000 970 3400 860 L3400 1133 L0 1133 Z" fill="#c3dba9" opacity="0.26"/>
  <g opacity="0.16" fill="#fffdf1">
    <circle cx="270" cy="238" r="8"/>
    <circle cx="980" cy="884" r="6"/>
    <circle cx="1880" cy="304" r="7"/>
    <circle cx="2380" cy="780" r="9"/>
    <circle cx="3120" cy="512" r="6"/>
  </g>
</svg>
