<svg xmlns="http://www.w3.org/2000/svg" width="3400" height="1133" viewBox="0 0 3400 1133">
  <defs>
    <linearGradient id="parkGround" x1="0" y1="0" x2="1" y2="1">
      <stop offset="0" stop-color="#e5f0cd"/>
      <stop offset="0.5" stop-color="#d6e8ba"/>
      <stop offset="1" stop-color="#bfd99e"/>
    </linearGradient>
    <radialGradient id="sunPool" cx="50%" cy="50%" r="60%">
      <stop offset="0" stop-color="#fff2c4" stop-opacity="0.48"/>
      <stop offset="1" stop-color="#fff2c4" stop-opacity="0"/>
    </radialGradient>
    <filter id="parkNoise">
      <feTurbulence type="fractalNoise" baseFrequency="0.014" numOctaves="5" seed="42"/>
      <feColorMatrix type="matrix" values="0 0 0 0 0.42 0 0 0 0 0.54 0 0 0 0 0.28 0 0 0 .11 0"/>
    </filter>
  </defs>
  <rect width="3400" height="1133" fill="url(#parkGround)"/>
  <rect width="3400" height="1133" filter="url(#parkNoise)" opacity="0.7"/>
  <ellipse cx="440" cy="650" rx="520" ry="270" fill="url(#sunPool)"/>
  <ellipse cx="1380" cy="330" rx="700" ry="300" fill="url(#sunPool)"/>
  <ellipse cx="2360" cy="720" rx="780" ry="310" fill="url(#sunPool)"/>
  <ellipse cx="3060" cy="330" rx="420" ry="210" fill="url(#sunPool)"/>
  <path d="M0 96 C420 28 860 118 1240 76 C1780 18 2200 130 2700 62 C3040 18 3220 42 3400 8 L3400 0 L0 0 Z" fill="#d9e9c0" opacity="0.32"/>
  <path d="M0 1060 C460 1000 820 1110 1260 1044 C1760 970 2220 1116 2680 1008 C3030 928 3240 1002 3400 946 L3400 1133 L0 1133 Z" fill="#adc986" opacity="0.22"/>
</svg>
